<mxfile host="app.diagrams.net" agent="Mozilla/5.0 (Windows NT 10.0; Win64; x64) AppleWebKit/537.36 (KHTML, like Gecko) Chrome/132.0.0.0 Safari/537.36" version="26.0.10">
  <diagram name="Page-1" id="wKgrstlCh42xalBL2j2R">
    <mxGraphModel dx="1732" dy="1078" grid="1" gridSize="10" guides="1" tooltips="1" connect="1" arrows="1" fold="1" page="1" pageScale="1" pageWidth="850" pageHeight="1100" math="0" shadow="0">
      <root>
        <mxCell id="0" />
        <mxCell id="1" parent="0" />
        <mxCell id="DgsO68BTkUHPjgy4X5T_-1" value="" style="points=[[0.145,0.145,0],[0.5,0,0],[0.855,0.145,0],[1,0.5,0],[0.855,0.855,0],[0.5,1,0],[0.145,0.855,0],[0,0.5,0]];shape=mxgraph.bpmn.event;html=1;verticalLabelPosition=bottom;labelBackgroundColor=#ffffff;verticalAlign=top;align=center;perimeter=ellipsePerimeter;outlineConnect=0;aspect=fixed;outline=standard;symbol=general;" vertex="1" parent="1">
          <mxGeometry x="40" y="40" width="50" height="50" as="geometry" />
        </mxCell>
        <mxCell id="DgsO68BTkUHPjgy4X5T_-3" style="edgeStyle=orthogonalEdgeStyle;rounded=0;orthogonalLoop=1;jettySize=auto;html=1;entryX=0;entryY=0.5;entryDx=0;entryDy=0;entryPerimeter=0;" edge="1" parent="1" source="DgsO68BTkUHPjgy4X5T_-1" target="DgsO68BTkUHPjgy4X5T_-4">
          <mxGeometry relative="1" as="geometry">
            <mxPoint x="130" y="65" as="targetPoint" />
          </mxGeometry>
        </mxCell>
        <mxCell id="DgsO68BTkUHPjgy4X5T_-4" value="Zustand erfassen" style="points=[[0.25,0,0],[0.5,0,0],[0.75,0,0],[1,0.25,0],[1,0.5,0],[1,0.75,0],[0.75,1,0],[0.5,1,0],[0.25,1,0],[0,0.75,0],[0,0.5,0],[0,0.25,0]];shape=mxgraph.bpmn.task2;whiteSpace=wrap;rectStyle=rounded;size=10;html=1;container=1;expand=0;collapsible=0;taskMarker=abstract;" vertex="1" parent="1">
          <mxGeometry x="160" y="25" width="120" height="80" as="geometry" />
        </mxCell>
        <mxCell id="DgsO68BTkUHPjgy4X5T_-6" value="Datenbankeintrag aktualisieren" style="points=[[0.25,0,0],[0.5,0,0],[0.75,0,0],[1,0.25,0],[1,0.5,0],[1,0.75,0],[0.75,1,0],[0.5,1,0],[0.25,1,0],[0,0.75,0],[0,0.5,0],[0,0.25,0]];shape=mxgraph.bpmn.task2;whiteSpace=wrap;rectStyle=rounded;size=10;html=1;container=1;expand=0;collapsible=0;taskMarker=abstract;" vertex="1" parent="1">
          <mxGeometry x="320" y="25" width="120" height="80" as="geometry" />
        </mxCell>
        <mxCell id="DgsO68BTkUHPjgy4X5T_-7" style="edgeStyle=orthogonalEdgeStyle;rounded=0;orthogonalLoop=1;jettySize=auto;html=1;entryX=0;entryY=0.5;entryDx=0;entryDy=0;entryPerimeter=0;" edge="1" parent="1" source="DgsO68BTkUHPjgy4X5T_-4" target="DgsO68BTkUHPjgy4X5T_-6">
          <mxGeometry relative="1" as="geometry" />
        </mxCell>
        <mxCell id="DgsO68BTkUHPjgy4X5T_-11" value="" style="points=[[0.25,0.25,0],[0.5,0,0],[0.75,0.25,0],[1,0.5,0],[0.75,0.75,0],[0.5,1,0],[0.25,0.75,0],[0,0.5,0]];shape=mxgraph.bpmn.gateway2;html=1;verticalLabelPosition=bottom;labelBackgroundColor=#ffffff;verticalAlign=top;align=center;perimeter=rhombusPerimeter;outlineConnect=0;outline=none;symbol=none;gwType=exclusive;" vertex="1" parent="1">
          <mxGeometry x="355" y="160" width="50" height="50" as="geometry" />
        </mxCell>
        <mxCell id="DgsO68BTkUHPjgy4X5T_-12" style="edgeStyle=orthogonalEdgeStyle;rounded=0;orthogonalLoop=1;jettySize=auto;html=1;entryX=0.5;entryY=0;entryDx=0;entryDy=0;entryPerimeter=0;" edge="1" parent="1" source="DgsO68BTkUHPjgy4X5T_-6" target="DgsO68BTkUHPjgy4X5T_-11">
          <mxGeometry relative="1" as="geometry" />
        </mxCell>
        <mxCell id="DgsO68BTkUHPjgy4X5T_-13" value="Aufbereitungsplan erstellen" style="points=[[0.25,0,0],[0.5,0,0],[0.75,0,0],[1,0.25,0],[1,0.5,0],[1,0.75,0],[0.75,1,0],[0.5,1,0],[0.25,1,0],[0,0.75,0],[0,0.5,0],[0,0.25,0]];shape=mxgraph.bpmn.task2;whiteSpace=wrap;rectStyle=rounded;size=10;html=1;container=1;expand=0;collapsible=0;taskMarker=abstract;" vertex="1" parent="1">
          <mxGeometry x="160" y="145" width="120" height="80" as="geometry" />
        </mxCell>
        <mxCell id="DgsO68BTkUHPjgy4X5T_-15" style="edgeStyle=orthogonalEdgeStyle;rounded=0;orthogonalLoop=1;jettySize=auto;html=1;entryX=1;entryY=0.5;entryDx=0;entryDy=0;entryPerimeter=0;" edge="1" parent="1" source="DgsO68BTkUHPjgy4X5T_-11" target="DgsO68BTkUHPjgy4X5T_-13">
          <mxGeometry relative="1" as="geometry" />
        </mxCell>
        <mxCell id="DgsO68BTkUHPjgy4X5T_-22" value="Kein&lt;div&gt;Schaden&lt;/div&gt;" style="edgeLabel;html=1;align=center;verticalAlign=middle;resizable=0;points=[];" vertex="1" connectable="0" parent="DgsO68BTkUHPjgy4X5T_-15">
          <mxGeometry x="-0.0133" y="-2" relative="1" as="geometry">
            <mxPoint x="2" y="2" as="offset" />
          </mxGeometry>
        </mxCell>
        <mxCell id="DgsO68BTkUHPjgy4X5T_-16" value="Aufbereitung durchführen" style="points=[[0.25,0,0],[0.5,0,0],[0.75,0,0],[1,0.25,0],[1,0.5,0],[1,0.75,0],[0.75,1,0],[0.5,1,0],[0.25,1,0],[0,0.75,0],[0,0.5,0],[0,0.25,0]];shape=mxgraph.bpmn.task2;whiteSpace=wrap;rectStyle=rounded;size=10;html=1;container=1;expand=0;collapsible=0;taskMarker=abstract;" vertex="1" parent="1">
          <mxGeometry x="160" y="280" width="120" height="80" as="geometry" />
        </mxCell>
        <mxCell id="DgsO68BTkUHPjgy4X5T_-17" style="edgeStyle=orthogonalEdgeStyle;rounded=0;orthogonalLoop=1;jettySize=auto;html=1;entryX=0.5;entryY=0;entryDx=0;entryDy=0;entryPerimeter=0;" edge="1" parent="1" source="DgsO68BTkUHPjgy4X5T_-13" target="DgsO68BTkUHPjgy4X5T_-16">
          <mxGeometry relative="1" as="geometry" />
        </mxCell>
        <mxCell id="DgsO68BTkUHPjgy4X5T_-18" value="Fahrzeug ist bereit zur Neuvermietung" style="points=[[0.25,0,0],[0.5,0,0],[0.75,0,0],[1,0.25,0],[1,0.5,0],[1,0.75,0],[0.75,1,0],[0.5,1,0],[0.25,1,0],[0,0.75,0],[0,0.5,0],[0,0.25,0]];shape=mxgraph.bpmn.task2;whiteSpace=wrap;rectStyle=rounded;size=10;html=1;container=1;expand=0;collapsible=0;taskMarker=abstract;" vertex="1" parent="1">
          <mxGeometry x="160" y="400" width="120" height="80" as="geometry" />
        </mxCell>
        <mxCell id="DgsO68BTkUHPjgy4X5T_-19" style="edgeStyle=orthogonalEdgeStyle;rounded=0;orthogonalLoop=1;jettySize=auto;html=1;entryX=0.5;entryY=0;entryDx=0;entryDy=0;entryPerimeter=0;" edge="1" parent="1" source="DgsO68BTkUHPjgy4X5T_-16" target="DgsO68BTkUHPjgy4X5T_-18">
          <mxGeometry relative="1" as="geometry" />
        </mxCell>
        <mxCell id="DgsO68BTkUHPjgy4X5T_-20" value="Mietvertrag identifizieren" style="points=[[0.25,0,0],[0.5,0,0],[0.75,0,0],[1,0.25,0],[1,0.5,0],[1,0.75,0],[0.75,1,0],[0.5,1,0],[0.25,1,0],[0,0.75,0],[0,0.5,0],[0,0.25,0]];shape=mxgraph.bpmn.task2;whiteSpace=wrap;rectStyle=rounded;size=10;html=1;container=1;expand=0;collapsible=0;taskMarker=abstract;" vertex="1" parent="1">
          <mxGeometry x="480" y="145" width="120" height="80" as="geometry" />
        </mxCell>
        <mxCell id="DgsO68BTkUHPjgy4X5T_-21" style="edgeStyle=orthogonalEdgeStyle;rounded=0;orthogonalLoop=1;jettySize=auto;html=1;entryX=0;entryY=0.5;entryDx=0;entryDy=0;entryPerimeter=0;" edge="1" parent="1" source="DgsO68BTkUHPjgy4X5T_-11" target="DgsO68BTkUHPjgy4X5T_-20">
          <mxGeometry relative="1" as="geometry" />
        </mxCell>
        <mxCell id="DgsO68BTkUHPjgy4X5T_-23" value="Schaden&lt;div&gt;festgestellt&lt;/div&gt;" style="edgeLabel;html=1;align=center;verticalAlign=middle;resizable=0;points=[];" vertex="1" connectable="0" parent="DgsO68BTkUHPjgy4X5T_-21">
          <mxGeometry x="-0.2978" y="1" relative="1" as="geometry">
            <mxPoint x="9" y="1" as="offset" />
          </mxGeometry>
        </mxCell>
        <mxCell id="DgsO68BTkUHPjgy4X5T_-25" value="Schaden identifizieren" style="points=[[0.25,0,0],[0.5,0,0],[0.75,0,0],[1,0.25,0],[1,0.5,0],[1,0.75,0],[0.75,1,0],[0.5,1,0],[0.25,1,0],[0,0.75,0],[0,0.5,0],[0,0.25,0]];shape=mxgraph.bpmn.task2;whiteSpace=wrap;rectStyle=rounded;size=10;html=1;container=1;expand=0;collapsible=0;taskMarker=abstract;" vertex="1" parent="1">
          <mxGeometry x="640" y="145" width="120" height="80" as="geometry" />
        </mxCell>
        <mxCell id="DgsO68BTkUHPjgy4X5T_-26" style="edgeStyle=orthogonalEdgeStyle;rounded=0;orthogonalLoop=1;jettySize=auto;html=1;entryX=0;entryY=0.5;entryDx=0;entryDy=0;entryPerimeter=0;" edge="1" parent="1" source="DgsO68BTkUHPjgy4X5T_-20" target="DgsO68BTkUHPjgy4X5T_-25">
          <mxGeometry relative="1" as="geometry" />
        </mxCell>
        <mxCell id="DgsO68BTkUHPjgy4X5T_-27" value="Schaden abgleichen mit Vorschäden" style="points=[[0.25,0,0],[0.5,0,0],[0.75,0,0],[1,0.25,0],[1,0.5,0],[1,0.75,0],[0.75,1,0],[0.5,1,0],[0.25,1,0],[0,0.75,0],[0,0.5,0],[0,0.25,0]];shape=mxgraph.bpmn.task2;whiteSpace=wrap;rectStyle=rounded;size=10;html=1;container=1;expand=0;collapsible=0;taskMarker=abstract;" vertex="1" parent="1">
          <mxGeometry x="640" y="280" width="120" height="80" as="geometry" />
        </mxCell>
        <mxCell id="DgsO68BTkUHPjgy4X5T_-28" style="edgeStyle=orthogonalEdgeStyle;rounded=0;orthogonalLoop=1;jettySize=auto;html=1;entryX=0.5;entryY=0;entryDx=0;entryDy=0;entryPerimeter=0;" edge="1" parent="1" source="DgsO68BTkUHPjgy4X5T_-25" target="DgsO68BTkUHPjgy4X5T_-27">
          <mxGeometry relative="1" as="geometry" />
        </mxCell>
        <mxCell id="DgsO68BTkUHPjgy4X5T_-29" value="Schadensermittlung mit Check-Karte" style="points=[[0.25,0,0],[0.5,0,0],[0.75,0,0],[1,0.25,0],[1,0.5,0],[1,0.75,0],[0.75,1,0],[0.5,1,0],[0.25,1,0],[0,0.75,0],[0,0.5,0],[0,0.25,0]];shape=mxgraph.bpmn.task2;whiteSpace=wrap;rectStyle=rounded;size=10;html=1;container=1;expand=0;collapsible=0;taskMarker=abstract;" vertex="1" parent="1">
          <mxGeometry x="480" y="280" width="120" height="80" as="geometry" />
        </mxCell>
        <mxCell id="DgsO68BTkUHPjgy4X5T_-30" style="edgeStyle=orthogonalEdgeStyle;rounded=0;orthogonalLoop=1;jettySize=auto;html=1;entryX=1;entryY=0.5;entryDx=0;entryDy=0;entryPerimeter=0;" edge="1" parent="1" source="DgsO68BTkUHPjgy4X5T_-27" target="DgsO68BTkUHPjgy4X5T_-29">
          <mxGeometry relative="1" as="geometry" />
        </mxCell>
        <mxCell id="DgsO68BTkUHPjgy4X5T_-31" value="Rücknahmeprotokol erstellen" style="points=[[0.25,0,0],[0.5,0,0],[0.75,0,0],[1,0.25,0],[1,0.5,0],[1,0.75,0],[0.75,1,0],[0.5,1,0],[0.25,1,0],[0,0.75,0],[0,0.5,0],[0,0.25,0]];shape=mxgraph.bpmn.task2;whiteSpace=wrap;rectStyle=rounded;size=10;html=1;container=1;expand=0;collapsible=0;taskMarker=abstract;" vertex="1" parent="1">
          <mxGeometry x="480" y="400" width="120" height="80" as="geometry" />
        </mxCell>
        <mxCell id="DgsO68BTkUHPjgy4X5T_-32" value="Finanzielle Einstufung des Schadens" style="points=[[0.25,0,0],[0.5,0,0],[0.75,0,0],[1,0.25,0],[1,0.5,0],[1,0.75,0],[0.75,1,0],[0.5,1,0],[0.25,1,0],[0,0.75,0],[0,0.5,0],[0,0.25,0]];shape=mxgraph.bpmn.task2;whiteSpace=wrap;rectStyle=rounded;size=10;html=1;container=1;expand=0;collapsible=0;taskMarker=abstract;" vertex="1" parent="1">
          <mxGeometry x="640" y="400" width="120" height="80" as="geometry" />
        </mxCell>
        <mxCell id="DgsO68BTkUHPjgy4X5T_-33" value="Abrechnung" style="points=[[0.25,0,0],[0.5,0,0],[0.75,0,0],[1,0.25,0],[1,0.5,0],[1,0.75,0],[0.75,1,0],[0.5,1,0],[0.25,1,0],[0,0.75,0],[0,0.5,0],[0,0.25,0]];shape=mxgraph.bpmn.task2;whiteSpace=wrap;rectStyle=rounded;size=10;html=1;container=1;expand=0;collapsible=0;taskMarker=abstract;" vertex="1" parent="1">
          <mxGeometry x="480" y="520" width="120" height="80" as="geometry" />
        </mxCell>
        <mxCell id="DgsO68BTkUHPjgy4X5T_-34" value="Schadensregulierung" style="points=[[0.25,0,0],[0.5,0,0],[0.75,0,0],[1,0.25,0],[1,0.5,0],[1,0.75,0],[0.75,1,0],[0.5,1,0],[0.25,1,0],[0,0.75,0],[0,0.5,0],[0,0.25,0]];shape=mxgraph.bpmn.task2;whiteSpace=wrap;rectStyle=rounded;size=10;html=1;container=1;expand=0;collapsible=0;taskMarker=abstract;" vertex="1" parent="1">
          <mxGeometry x="640" y="520" width="120" height="80" as="geometry" />
        </mxCell>
        <mxCell id="DgsO68BTkUHPjgy4X5T_-35" style="edgeStyle=orthogonalEdgeStyle;rounded=0;orthogonalLoop=1;jettySize=auto;html=1;entryX=0.5;entryY=0;entryDx=0;entryDy=0;entryPerimeter=0;" edge="1" parent="1" source="DgsO68BTkUHPjgy4X5T_-29" target="DgsO68BTkUHPjgy4X5T_-31">
          <mxGeometry relative="1" as="geometry" />
        </mxCell>
        <mxCell id="DgsO68BTkUHPjgy4X5T_-36" style="edgeStyle=orthogonalEdgeStyle;rounded=0;orthogonalLoop=1;jettySize=auto;html=1;entryX=0;entryY=0.5;entryDx=0;entryDy=0;entryPerimeter=0;" edge="1" parent="1" source="DgsO68BTkUHPjgy4X5T_-31" target="DgsO68BTkUHPjgy4X5T_-32">
          <mxGeometry relative="1" as="geometry" />
        </mxCell>
        <mxCell id="DgsO68BTkUHPjgy4X5T_-37" style="edgeStyle=orthogonalEdgeStyle;rounded=0;orthogonalLoop=1;jettySize=auto;html=1;entryX=0.5;entryY=0;entryDx=0;entryDy=0;entryPerimeter=0;" edge="1" parent="1" source="DgsO68BTkUHPjgy4X5T_-32" target="DgsO68BTkUHPjgy4X5T_-34">
          <mxGeometry relative="1" as="geometry" />
        </mxCell>
        <mxCell id="DgsO68BTkUHPjgy4X5T_-38" style="edgeStyle=orthogonalEdgeStyle;rounded=0;orthogonalLoop=1;jettySize=auto;html=1;entryX=1;entryY=0.5;entryDx=0;entryDy=0;entryPerimeter=0;" edge="1" parent="1" source="DgsO68BTkUHPjgy4X5T_-34" target="DgsO68BTkUHPjgy4X5T_-33">
          <mxGeometry relative="1" as="geometry" />
        </mxCell>
        <mxCell id="DgsO68BTkUHPjgy4X5T_-40" value="" style="points=[[0.25,0.25,0],[0.5,0,0],[0.75,0.25,0],[1,0.5,0],[0.75,0.75,0],[0.5,1,0],[0.25,0.75,0],[0,0.5,0]];shape=mxgraph.bpmn.gateway2;html=1;verticalLabelPosition=bottom;labelBackgroundColor=#ffffff;verticalAlign=top;align=center;perimeter=rhombusPerimeter;outlineConnect=0;outline=none;symbol=none;gwType=exclusive;" vertex="1" parent="1">
          <mxGeometry x="515" y="640" width="50" height="50" as="geometry" />
        </mxCell>
        <mxCell id="DgsO68BTkUHPjgy4X5T_-41" style="edgeStyle=orthogonalEdgeStyle;rounded=0;orthogonalLoop=1;jettySize=auto;html=1;entryX=0.5;entryY=0;entryDx=0;entryDy=0;entryPerimeter=0;" edge="1" parent="1" source="DgsO68BTkUHPjgy4X5T_-33" target="DgsO68BTkUHPjgy4X5T_-40">
          <mxGeometry relative="1" as="geometry" />
        </mxCell>
        <mxCell id="DgsO68BTkUHPjgy4X5T_-42" value="Fahrzeugs Entsorgungsform festlegen" style="points=[[0.25,0,0],[0.5,0,0],[0.75,0,0],[1,0.25,0],[1,0.5,0],[1,0.75,0],[0.75,1,0],[0.5,1,0],[0.25,1,0],[0,0.75,0],[0,0.5,0],[0,0.25,0]];shape=mxgraph.bpmn.task2;whiteSpace=wrap;rectStyle=rounded;size=10;html=1;container=1;expand=0;collapsible=0;taskMarker=abstract;" vertex="1" parent="1">
          <mxGeometry x="640" y="625" width="120" height="80" as="geometry" />
        </mxCell>
        <mxCell id="DgsO68BTkUHPjgy4X5T_-43" style="edgeStyle=orthogonalEdgeStyle;rounded=0;orthogonalLoop=1;jettySize=auto;html=1;entryX=0;entryY=0.5;entryDx=0;entryDy=0;entryPerimeter=0;" edge="1" parent="1" source="DgsO68BTkUHPjgy4X5T_-40" target="DgsO68BTkUHPjgy4X5T_-42">
          <mxGeometry relative="1" as="geometry" />
        </mxCell>
        <mxCell id="DgsO68BTkUHPjgy4X5T_-46" value="Fahrzeug&lt;div&gt;entsorgen&lt;/div&gt;" style="edgeLabel;html=1;align=center;verticalAlign=middle;resizable=0;points=[];" vertex="1" connectable="0" parent="DgsO68BTkUHPjgy4X5T_-43">
          <mxGeometry x="-0.1719" y="1" relative="1" as="geometry">
            <mxPoint as="offset" />
          </mxGeometry>
        </mxCell>
        <mxCell id="DgsO68BTkUHPjgy4X5T_-44" value="Fahrzeug durch Gutachter bewerten" style="points=[[0.25,0,0],[0.5,0,0],[0.75,0,0],[1,0.25,0],[1,0.5,0],[1,0.75,0],[0.75,1,0],[0.5,1,0],[0.25,1,0],[0,0.75,0],[0,0.5,0],[0,0.25,0]];shape=mxgraph.bpmn.task2;whiteSpace=wrap;rectStyle=rounded;size=10;html=1;container=1;expand=0;collapsible=0;taskMarker=abstract;" vertex="1" parent="1">
          <mxGeometry x="320" y="625" width="120" height="80" as="geometry" />
        </mxCell>
        <mxCell id="DgsO68BTkUHPjgy4X5T_-45" style="edgeStyle=orthogonalEdgeStyle;rounded=0;orthogonalLoop=1;jettySize=auto;html=1;entryX=1;entryY=0.5;entryDx=0;entryDy=0;entryPerimeter=0;" edge="1" parent="1" source="DgsO68BTkUHPjgy4X5T_-40" target="DgsO68BTkUHPjgy4X5T_-44">
          <mxGeometry relative="1" as="geometry" />
        </mxCell>
        <mxCell id="DgsO68BTkUHPjgy4X5T_-47" value="Fahrzeug&lt;div&gt;reparieren&lt;/div&gt;" style="edgeLabel;html=1;align=center;verticalAlign=middle;resizable=0;points=[];" vertex="1" connectable="0" parent="DgsO68BTkUHPjgy4X5T_-45">
          <mxGeometry x="-0.2497" y="-1" relative="1" as="geometry">
            <mxPoint x="-7" y="1" as="offset" />
          </mxGeometry>
        </mxCell>
        <mxCell id="DgsO68BTkUHPjgy4X5T_-51" style="edgeStyle=orthogonalEdgeStyle;rounded=0;orthogonalLoop=1;jettySize=auto;html=1;" edge="1" parent="1" source="DgsO68BTkUHPjgy4X5T_-48" target="DgsO68BTkUHPjgy4X5T_-50">
          <mxGeometry relative="1" as="geometry" />
        </mxCell>
        <mxCell id="DgsO68BTkUHPjgy4X5T_-48" value="Fahrzeug entsorgen" style="points=[[0.25,0,0],[0.5,0,0],[0.75,0,0],[1,0.25,0],[1,0.5,0],[1,0.75,0],[0.75,1,0],[0.5,1,0],[0.25,1,0],[0,0.75,0],[0,0.5,0],[0,0.25,0]];shape=mxgraph.bpmn.task2;whiteSpace=wrap;rectStyle=rounded;size=10;html=1;container=1;expand=0;collapsible=0;taskMarker=abstract;" vertex="1" parent="1">
          <mxGeometry x="640" y="760" width="120" height="80" as="geometry" />
        </mxCell>
        <mxCell id="DgsO68BTkUHPjgy4X5T_-49" style="edgeStyle=orthogonalEdgeStyle;rounded=0;orthogonalLoop=1;jettySize=auto;html=1;entryX=0.5;entryY=0;entryDx=0;entryDy=0;entryPerimeter=0;" edge="1" parent="1" source="DgsO68BTkUHPjgy4X5T_-42" target="DgsO68BTkUHPjgy4X5T_-48">
          <mxGeometry relative="1" as="geometry" />
        </mxCell>
        <mxCell id="DgsO68BTkUHPjgy4X5T_-50" value="" style="points=[[0.145,0.145,0],[0.5,0,0],[0.855,0.145,0],[1,0.5,0],[0.855,0.855,0],[0.5,1,0],[0.145,0.855,0],[0,0.5,0]];shape=mxgraph.bpmn.event;html=1;verticalLabelPosition=bottom;labelBackgroundColor=#ffffff;verticalAlign=top;align=center;perimeter=ellipsePerimeter;outlineConnect=0;aspect=fixed;outline=end;symbol=terminate2;" vertex="1" parent="1">
          <mxGeometry x="675" y="880" width="50" height="50" as="geometry" />
        </mxCell>
        <mxCell id="DgsO68BTkUHPjgy4X5T_-52" value="" style="points=[[0.145,0.145,0],[0.5,0,0],[0.855,0.145,0],[1,0.5,0],[0.855,0.855,0],[0.5,1,0],[0.145,0.855,0],[0,0.5,0]];shape=mxgraph.bpmn.event;html=1;verticalLabelPosition=bottom;labelBackgroundColor=#ffffff;verticalAlign=top;align=center;perimeter=ellipsePerimeter;outlineConnect=0;aspect=fixed;outline=end;symbol=terminate2;" vertex="1" parent="1">
          <mxGeometry x="195" y="520" width="50" height="50" as="geometry" />
        </mxCell>
        <mxCell id="DgsO68BTkUHPjgy4X5T_-53" style="edgeStyle=orthogonalEdgeStyle;rounded=0;orthogonalLoop=1;jettySize=auto;html=1;entryX=0.5;entryY=0;entryDx=0;entryDy=0;entryPerimeter=0;" edge="1" parent="1" source="DgsO68BTkUHPjgy4X5T_-18" target="DgsO68BTkUHPjgy4X5T_-52">
          <mxGeometry relative="1" as="geometry" />
        </mxCell>
        <mxCell id="DgsO68BTkUHPjgy4X5T_-55" style="edgeStyle=orthogonalEdgeStyle;rounded=0;orthogonalLoop=1;jettySize=auto;html=1;entryX=0.5;entryY=0;entryDx=0;entryDy=0;entryPerimeter=0;" edge="1" parent="1" source="DgsO68BTkUHPjgy4X5T_-44" target="DgsO68BTkUHPjgy4X5T_-56">
          <mxGeometry relative="1" as="geometry">
            <mxPoint x="380" y="740" as="targetPoint" />
          </mxGeometry>
        </mxCell>
        <mxCell id="DgsO68BTkUHPjgy4X5T_-59" style="edgeStyle=orthogonalEdgeStyle;rounded=0;orthogonalLoop=1;jettySize=auto;html=1;exitX=0;exitY=0.5;exitDx=0;exitDy=0;exitPerimeter=0;" edge="1" parent="1" source="DgsO68BTkUHPjgy4X5T_-56" target="DgsO68BTkUHPjgy4X5T_-58">
          <mxGeometry relative="1" as="geometry" />
        </mxCell>
        <mxCell id="DgsO68BTkUHPjgy4X5T_-61" value="Große&lt;div&gt;Werkstatt&lt;/div&gt;" style="edgeLabel;html=1;align=center;verticalAlign=middle;resizable=0;points=[];" vertex="1" connectable="0" parent="DgsO68BTkUHPjgy4X5T_-59">
          <mxGeometry x="-0.2404" relative="1" as="geometry">
            <mxPoint x="-7" as="offset" />
          </mxGeometry>
        </mxCell>
        <mxCell id="DgsO68BTkUHPjgy4X5T_-56" value="" style="points=[[0.25,0.25,0],[0.5,0,0],[0.75,0.25,0],[1,0.5,0],[0.75,0.75,0],[0.5,1,0],[0.25,0.75,0],[0,0.5,0]];shape=mxgraph.bpmn.gateway2;html=1;verticalLabelPosition=bottom;labelBackgroundColor=#ffffff;verticalAlign=top;align=center;perimeter=rhombusPerimeter;outlineConnect=0;outline=none;symbol=none;gwType=exclusive;" vertex="1" parent="1">
          <mxGeometry x="355" y="760" width="50" height="50" as="geometry" />
        </mxCell>
        <mxCell id="DgsO68BTkUHPjgy4X5T_-57" value="Auftrag bei lokaler Werkstatt aufgeben" style="points=[[0.25,0,0],[0.5,0,0],[0.75,0,0],[1,0.25,0],[1,0.5,0],[1,0.75,0],[0.75,1,0],[0.5,1,0],[0.25,1,0],[0,0.75,0],[0,0.5,0],[0,0.25,0]];shape=mxgraph.bpmn.task2;whiteSpace=wrap;rectStyle=rounded;size=10;html=1;container=1;expand=0;collapsible=0;taskMarker=abstract;" vertex="1" parent="1">
          <mxGeometry x="480" y="745" width="120" height="80" as="geometry" />
        </mxCell>
        <mxCell id="DgsO68BTkUHPjgy4X5T_-58" value="Auftrag bei interner Werkstatt aufgeben" style="points=[[0.25,0,0],[0.5,0,0],[0.75,0,0],[1,0.25,0],[1,0.5,0],[1,0.75,0],[0.75,1,0],[0.5,1,0],[0.25,1,0],[0,0.75,0],[0,0.5,0],[0,0.25,0]];shape=mxgraph.bpmn.task2;whiteSpace=wrap;rectStyle=rounded;size=10;html=1;container=1;expand=0;collapsible=0;taskMarker=abstract;" vertex="1" parent="1">
          <mxGeometry x="160" y="745" width="120" height="80" as="geometry" />
        </mxCell>
        <mxCell id="DgsO68BTkUHPjgy4X5T_-60" style="edgeStyle=orthogonalEdgeStyle;rounded=0;orthogonalLoop=1;jettySize=auto;html=1;entryX=0;entryY=0.5;entryDx=0;entryDy=0;entryPerimeter=0;" edge="1" parent="1" source="DgsO68BTkUHPjgy4X5T_-56" target="DgsO68BTkUHPjgy4X5T_-57">
          <mxGeometry relative="1" as="geometry" />
        </mxCell>
        <mxCell id="DgsO68BTkUHPjgy4X5T_-62" value="Kleine&lt;div&gt;Werkstatt&lt;/div&gt;" style="edgeLabel;html=1;align=center;verticalAlign=middle;resizable=0;points=[];" vertex="1" connectable="0" parent="1">
          <mxGeometry x="439.99515151515163" y="785" as="geometry" />
        </mxCell>
        <mxCell id="DgsO68BTkUHPjgy4X5T_-63" value="" style="points=[[0.25,0.25,0],[0.5,0,0],[0.75,0.25,0],[1,0.5,0],[0.75,0.75,0],[0.5,1,0],[0.25,0.75,0],[0,0.5,0]];shape=mxgraph.bpmn.gateway2;html=1;verticalLabelPosition=bottom;labelBackgroundColor=#ffffff;verticalAlign=top;align=center;perimeter=rhombusPerimeter;outlineConnect=0;outline=none;symbol=none;" vertex="1" parent="1">
          <mxGeometry x="355" y="880" width="50" height="50" as="geometry" />
        </mxCell>
        <mxCell id="DgsO68BTkUHPjgy4X5T_-64" style="edgeStyle=orthogonalEdgeStyle;rounded=0;orthogonalLoop=1;jettySize=auto;html=1;entryX=1;entryY=0.5;entryDx=0;entryDy=0;entryPerimeter=0;" edge="1" parent="1" source="DgsO68BTkUHPjgy4X5T_-57" target="DgsO68BTkUHPjgy4X5T_-63">
          <mxGeometry relative="1" as="geometry">
            <Array as="points">
              <mxPoint x="540" y="905" />
            </Array>
          </mxGeometry>
        </mxCell>
        <mxCell id="DgsO68BTkUHPjgy4X5T_-65" style="edgeStyle=orthogonalEdgeStyle;rounded=0;orthogonalLoop=1;jettySize=auto;html=1;entryX=0;entryY=0.5;entryDx=0;entryDy=0;entryPerimeter=0;" edge="1" parent="1" source="DgsO68BTkUHPjgy4X5T_-58" target="DgsO68BTkUHPjgy4X5T_-63">
          <mxGeometry relative="1" as="geometry">
            <Array as="points">
              <mxPoint x="220" y="905" />
            </Array>
          </mxGeometry>
        </mxCell>
        <mxCell id="DgsO68BTkUHPjgy4X5T_-66" value="Repartur durchführen lassen" style="points=[[0.25,0,0],[0.5,0,0],[0.75,0,0],[1,0.25,0],[1,0.5,0],[1,0.75,0],[0.75,1,0],[0.5,1,0],[0.25,1,0],[0,0.75,0],[0,0.5,0],[0,0.25,0]];shape=mxgraph.bpmn.task2;whiteSpace=wrap;rectStyle=rounded;size=10;html=1;container=1;expand=0;collapsible=0;taskMarker=abstract;" vertex="1" parent="1">
          <mxGeometry x="320" y="960" width="120" height="80" as="geometry" />
        </mxCell>
        <mxCell id="DgsO68BTkUHPjgy4X5T_-67" style="edgeStyle=orthogonalEdgeStyle;rounded=0;orthogonalLoop=1;jettySize=auto;html=1;entryX=0.5;entryY=0;entryDx=0;entryDy=0;entryPerimeter=0;" edge="1" parent="1" source="DgsO68BTkUHPjgy4X5T_-63" target="DgsO68BTkUHPjgy4X5T_-66">
          <mxGeometry relative="1" as="geometry" />
        </mxCell>
        <mxCell id="DgsO68BTkUHPjgy4X5T_-70" style="edgeStyle=orthogonalEdgeStyle;rounded=0;orthogonalLoop=1;jettySize=auto;html=1;entryX=0;entryY=0.5;entryDx=0;entryDy=0;entryPerimeter=0;" edge="1" parent="1" source="DgsO68BTkUHPjgy4X5T_-68" target="DgsO68BTkUHPjgy4X5T_-18">
          <mxGeometry relative="1" as="geometry">
            <mxPoint x="90" y="570" as="targetPoint" />
            <Array as="points">
              <mxPoint x="40" y="1000" />
              <mxPoint x="40" y="440" />
            </Array>
          </mxGeometry>
        </mxCell>
        <mxCell id="DgsO68BTkUHPjgy4X5T_-68" value="Reparatur in Fahrzeug-Stammsatz aufnehmen" style="points=[[0.25,0,0],[0.5,0,0],[0.75,0,0],[1,0.25,0],[1,0.5,0],[1,0.75,0],[0.75,1,0],[0.5,1,0],[0.25,1,0],[0,0.75,0],[0,0.5,0],[0,0.25,0]];shape=mxgraph.bpmn.task2;whiteSpace=wrap;rectStyle=rounded;size=10;html=1;container=1;expand=0;collapsible=0;taskMarker=abstract;" vertex="1" parent="1">
          <mxGeometry x="160" y="960" width="120" height="80" as="geometry" />
        </mxCell>
        <mxCell id="DgsO68BTkUHPjgy4X5T_-69" style="edgeStyle=orthogonalEdgeStyle;rounded=0;orthogonalLoop=1;jettySize=auto;html=1;entryX=1;entryY=0.5;entryDx=0;entryDy=0;entryPerimeter=0;" edge="1" parent="1" source="DgsO68BTkUHPjgy4X5T_-66" target="DgsO68BTkUHPjgy4X5T_-68">
          <mxGeometry relative="1" as="geometry" />
        </mxCell>
      </root>
    </mxGraphModel>
  </diagram>
</mxfile>
